<!DOCTYPE svg PUBLIC "-//W3C//DTD SVG 1.1//EN" "http://www.w3.org/Graphics/SVG/1.1/DTD/svg11.dtd">
<!-- Uploaded to: SVG Repo, www.svgrepo.com, Transformed by: SVG Repo Mixer Tools -->
<svg fill="#000000" width="256px" height="256px" viewBox="-3.2 -3.2 38.40 38.40" xmlns="http://www.w3.org/2000/svg" stroke="#000000" stroke-width="0.00032">
<g id="SVGRepo_bgCarrier" stroke-width="0">
<path transform="translate(-3.2, -3.2), scale(1.2)" d="M16,24.64023356041626C18.984722864111596,24.655446801344624,22.144867173107002,24.693191195409973,24.25945099416609,22.586692374625773C26.652378146548173,20.202914453639544,27.9274029677282,16.741251848230934,27.251284528533084,13.431967727855469C26.55863450640108,10.041769226616724,23.963747042975022,7.438016808131926,20.85428196312652,5.919979638572615C17.721725372695634,4.390669220893391,14.15330343306325,4.146489096996919,10.924899921611637,5.461446097480616C7.410424507621577,6.892922687151439,3.9255283869159054,9.355720225248353,3.2507269702767054,13.09006162774732C2.59751741272763,16.704913990405863,5.123110270631171,20.03672489674191,7.845458732412039,22.50302965944478C10.036421782937385,24.48792714126158,13.043666114737047,24.625165019144983,16,24.64023356041626" fill="#e0e0e0" strokewidth="0"/>
</g>
<g id="SVGRepo_tracerCarrier" stroke-linecap="round" stroke-linejoin="round" stroke="#CCCCCC" stroke-width="0.192"/>
<g id="SVGRepo_iconCarrier"> <path d="M19.078 12.786v0.005c-0.099-0.063-0.302-0.094-0.557-0.094v6.422c0.359 0 0.583-0.083 0.667-0.224 0.083-0.135 0.125-0.536 0.125-1.177v-3.823c0-0.438-0.005-0.719-0.042-0.839-0.031-0.13-0.089-0.219-0.188-0.271zM29.885 0h-27.724c-1.172 0.078-2.083 0.99-2.161 2.13v27.708c0.078 1.167 0.948 2.057 2.073 2.156 0.021 0.005 0.042 0.005 0.063 0.005h27.792c1.172-0.12 2.068-1.099 2.073-2.281v-27.438c0-1.188-0.927-2.188-2.115-2.281zM6.391 20.833h-2.542v-9.818h2.542zM15.109 20.833h-2.214v-6.63l-0.896 6.625h-1.583l-0.932-6.479-0.010 6.479h-2.219v-9.813h3.286c0.115 0.693 0.214 1.396 0.307 2.099l0.359 2.49 0.594-4.589h3.307zM21.745 17.927c0 0.87-0.057 1.458-0.141 1.76-0.078 0.292-0.224 0.531-0.432 0.693-0.198 0.172-0.453 0.292-0.76 0.354-0.297 0.057-0.76 0.099-1.359 0.099l-0.005-0.005h-3.073v-9.813h1.901c1.219 0 1.932 0.063 2.359 0.167 0.432 0.12 0.766 0.302 0.995 0.563 0.219 0.24 0.365 0.536 0.417 0.859 0.068 0.313 0.099 0.938 0.099 1.87zM28.339 18.557c0 0.599-0.063 1.021-0.12 1.323-0.083 0.297-0.26 0.536-0.542 0.755-0.302 0.224-0.641 0.323-1.042 0.323-0.292 0-0.667-0.083-0.906-0.182-0.25-0.125-0.474-0.318-0.688-0.573l-0.151 0.63h-2.292v-9.818l-0.026-0.005h2.401v3.198c0.198-0.234 0.422-0.411 0.677-0.531 0.266-0.109 0.625-0.172 0.922-0.172 0.302 0 0.599 0.047 0.88 0.156 0.229 0.094 0.427 0.245 0.583 0.438 0.12 0.167 0.198 0.359 0.24 0.563 0.036 0.182 0.057 0.573 0.057 1.156v2.74zM25.438 14.938c-0.156 0-0.255 0.057-0.297 0.161-0.042 0.109-0.078 0.385-0.078 0.833v2.594c0 0.432 0.036 0.714 0.078 0.833 0.052 0.115 0.172 0.182 0.302 0.177 0.156 0 0.359-0.063 0.401-0.188 0.036-0.13 0.057-0.427 0.057-0.896l0.042-0.005v-2.521c0-0.401-0.021-0.677-0.078-0.802-0.063-0.135-0.26-0.188-0.422-0.188z"/> </g>
</svg>